<?xml version="1.0" encoding="UTF-8"?>
<svg width="118px" height="22px" viewBox="0 0 118 22" version="1.1" xmlns="http://www.w3.org/2000/svg" xmlns:xlink="http://www.w3.org/1999/xlink">
    <!-- Generator: Sketch 54.1 (76490) - https://sketchapp.com -->
    <title>logo</title>
    <desc>Created with Sketch.</desc>
    <g id="Symbols" stroke="none" stroke-width="1" fill="none" fill-rule="evenodd">
        <g id="Logo-/-Dark" fill="#FFFFFF" fill-rule="nonzero">
            <path d="M46.5026495,18.1318681 L44,3.84615385 L47.8637396,3.84615385 L48.65405,10.0879121 C48.8077214,11.5824176 48.983346,13.0769231 49.1370174,14.5714286 L49.2248297,14.5714286 C49.4882665,13.0769231 49.7517033,11.5604396 50.0151401,10.0879121 L51.3762301,3.84615385 L54.5374716,3.84615385 L55.8985617,10.0879121 C56.1619985,11.5164835 56.4254353,13.0549451 56.6888721,14.5714286 L56.7766844,14.5714286 C56.9303558,13.0549451 57.1059803,11.5384615 57.2596518,10.0879121 L58.0499622,3.84615385 L61.650265,3.84615385 L59.2793339,18.1318681 L54.4935655,18.1318681 L53.3959122,12.4615385 C53.1763815,11.3626374 53.000757,10.1758242 52.8690386,9.12087912 L52.7812264,9.12087912 C52.6275549,10.1758242 52.4738834,11.3626374 52.2543528,12.4615385 L51.2006056,18.1318681 L46.5026495,18.1318681 Z M61.4746404,12.6373626 C61.4746404,8.98901099 64.1090083,6.87912088 66.9190008,6.87912088 C69.7289932,6.87912088 72.3633611,8.98901099 72.3633611,12.6373626 C72.3633611,16.2857143 69.7289932,18.3956044 66.9190008,18.3956044 C64.1090083,18.3956044 61.4746404,16.2857143 61.4746404,12.6373626 Z M65.33838,12.6373626 C65.33838,14.3076923 65.7774414,15.3626374 66.9190008,15.3626374 C68.0605602,15.3626374 68.4996215,14.3076923 68.4996215,12.6373626 C68.4996215,10.967033 68.0605602,9.91208791 66.9190008,9.91208791 C65.7774414,9.91208791 65.33838,10.967033 65.33838,12.6373626 Z M73.2414837,18.1318681 L73.2414837,7.14285714 L76.314913,7.14285714 L76.5783498,9.03296703 L76.666162,9.03296703 C77.4784255,7.53846154 78.7077972,6.87912088 79.7834974,6.87912088 C80.4640424,6.87912088 80.8372445,6.96703297 81.1445875,7.0989011 L80.5299016,10.3516484 C80.1347464,10.2637363 79.7834974,10.1758242 79.3005299,10.1758242 C78.5102196,10.1758242 77.5442847,10.6593407 77.0174111,12.021978 L77.0174111,18.1318681 L73.2414837,18.1318681 Z M80.2225587,16.8571429 L81.8909917,14.5274725 C82.9008327,15.2747253 83.8009084,15.6263736 84.5692657,15.6263736 C85.3595761,15.6263736 85.666919,15.4065934 85.666919,14.967033 C85.666919,14.3956044 84.657078,14.1318681 83.5594247,13.6923077 C82.2861469,13.1868132 80.7933384,12.2417582 80.7933384,10.4395604 C80.7933384,8.28571429 82.5495837,6.87912088 85.1400454,6.87912088 C86.9401968,6.87912088 88.2134747,7.6043956 89.1794096,8.32967033 L87.5109766,10.5714286 C86.7206662,10 85.9523089,9.64835165 85.2717638,9.64835165 C84.6351249,9.64835165 84.3058289,9.82417582 84.3058289,10.2637363 C84.3058289,10.8351648 85.2717638,11.0549451 86.3694171,11.4505495 C87.6866011,11.9340659 89.1794096,12.7692308 89.1794096,14.7472527 C89.1794096,16.8131868 87.5548827,18.3956044 84.4814535,18.3956044 C83.0764572,18.3956044 81.3641181,17.7802198 80.2225587,16.8571429 Z M89.9258138,18.1318681 L89.9258138,2.83516484 L93.7017411,2.83516484 L93.7017411,6.3956044 L93.5261166,8.28571429 C94.2725208,7.62637363 95.326268,6.87912088 96.8190765,6.87912088 C99.2339137,6.87912088 100.243755,8.63736264 100.243755,11.3626374 L100.243755,18.1318681 L96.4678274,18.1318681 L96.4678274,11.8461538 C96.4678274,10.4395604 96.1165784,10.0879121 95.3701741,10.0879121 C94.667676,10.0879121 94.2725208,10.3956044 93.7017411,10.9230769 L93.7017411,18.1318681 L89.9258138,18.1318681 Z M103.492808,5.78021978 C102.263437,5.78021978 101.385314,4.98901099 101.385314,3.89010989 C101.385314,2.79120879 102.263437,2 103.492808,2 C104.72218,2 105.600303,2.79120879 105.600303,3.89010989 C105.600303,4.98901099 104.72218,5.78021978 103.492808,5.78021978 Z M101.604845,18.1318681 L101.604845,7.14285714 L105.380772,7.14285714 L105.380772,18.1318681 L101.604845,18.1318681 Z M110.473883,17.2967033 L110.605602,18.967033 L110.605602,22 L106.829674,22 L106.829674,7.14285714 L109.903104,7.14285714 L110.166541,8.15384615 L110.254353,8.15384615 C111.066616,7.40659341 112.142316,6.87912088 113.23997,6.87912088 C115.830432,6.87912088 117.498865,9.07692308 117.498865,12.4615385 C117.498865,16.2417582 115.259652,18.3956044 112.932627,18.3956044 C112.010598,18.3956044 111.176382,18 110.473883,17.2967033 Z M110.605602,14.7912088 C111.044663,15.1868132 111.527631,15.3186813 112.010598,15.3186813 C112.888721,15.3186813 113.635125,14.6153846 113.635125,12.5054945 C113.635125,10.7032967 113.108251,9.95604396 112.09841,9.95604396 C111.527631,9.95604396 111.088569,10.1758242 110.605602,10.7472527 L110.605602,14.7912088 Z" id="Worship"></path>
            <path d="M1,18.5164835 L1,4.14285714 L3.54655565,4.14285714 L3.54655565,9.92307692 L9.34216505,9.92307692 L9.34216505,4.14285714 L11.8887207,4.14285714 L11.8887207,18.5164835 L9.34216505,18.5164835 L9.34216505,12.1428571 L3.54655565,12.1428571 L3.54655565,18.5164835 L1,18.5164835 Z M13.4912945,13.1318681 C13.4912945,9.61538462 15.9280848,7.46153846 18.4526874,7.46153846 C21.3724451,7.46153846 22.9091598,9.57142857 22.9091598,12.5824176 C22.9091598,13.0659341 22.8652536,13.5054945 22.7993944,13.7692308 L15.9500379,13.7692308 C16.1695685,15.7252747 17.3989402,16.8241758 19.1332324,16.8241758 C20.0552612,16.8241758 20.8455716,16.5384615 21.6358819,16.032967 L22.4920515,17.6153846 C21.4602574,18.2967033 20.1650265,18.7802198 18.8039364,18.7802198 C15.8183195,18.7802198 13.4912945,16.6923077 13.4912945,13.1318681 Z M15.9280848,12.1648352 L20.7138532,12.1648352 C20.7138532,10.4505495 19.989402,9.41758242 18.5185466,9.41758242 C17.2452687,9.41758242 16.1476155,10.3626374 15.9280848,12.1648352 Z M24.2263437,15.7472527 L24.2263437,3 L26.7509463,3 L26.7509463,15.8791209 C26.7509463,16.4945055 27.0363361,16.7142857 27.2997729,16.7142857 C27.4095382,16.7142857 27.4973505,16.7142857 27.6949281,16.6703297 L28.0242241,18.5604396 C27.7168812,18.6923077 27.2778198,18.7802198 26.6850871,18.7802198 C24.8849357,18.7802198 24.2263437,17.6153846 24.2263437,15.7472527 Z M29.0779712,15.7472527 L29.0779712,3 L31.6025738,3 L31.6025738,15.8791209 C31.6025738,16.4945055 31.8879637,16.7142857 32.1514005,16.7142857 C32.2611658,16.7142857 32.348978,16.7142857 32.5465556,16.6703297 L32.8758516,18.5604396 C32.5685087,18.6923077 32.1294474,18.7802198 31.5367146,18.7802198 C29.7365632,18.7802198 29.0779712,17.6153846 29.0779712,15.7472527 Z M33.2271007,13.1318681 C33.2271007,9.52747253 35.663891,7.46153846 38.342165,7.46153846 C41.0423921,7.46153846 43.4791824,9.52747253 43.4791824,13.1318681 C43.4791824,16.7142857 41.0423921,18.7802198 38.342165,18.7802198 C35.663891,18.7802198 33.2271007,16.7142857 33.2271007,13.1318681 Z M35.8175624,13.1318681 C35.8175624,15.2857143 36.7615443,16.7142857 38.342165,16.7142857 C39.9227858,16.7142857 40.8887207,15.2857143 40.8887207,13.1318681 C40.8887207,10.956044 39.9227858,9.52747253 38.342165,9.52747253 C36.7615443,9.52747253 35.8175624,10.956044 35.8175624,13.1318681 Z" id="Hello"></path>
        </g>
    </g>
</svg>